<svg id="Layer_1" enable-background="new 0 0 512.569 512.569" height="512" viewBox="0 0 512.569 512.569" width="512" xmlns="http://www.w3.org/2000/svg"><g><path d="m418.66 418.755c81.9-81.9 106.531-196.647 69.564-285.545-5.625-13.526-7.046-28.716-3.513-43.31 4.172-17.229-.193-35.791-13.25-48.848s-31.62-17.422-48.849-13.25c-14.594 3.534-29.783 2.112-43.31-3.513-88.898-36.967-203.645-12.336-285.545 69.564-84.568 84.568-108.071 204.157-65.749 294.148 5.222 11.103 7.139 23.496 6.344 35.974-1.98 31.099 22.98 56.171 54.185 54.185 12.478-.794 24.87 1.123 35.974 6.344 89.991 42.323 209.58 18.819 294.149-65.749z" fill="#faed8a"/><g><g><g><path d="m445.339 27.228c-7.452-1.439-15.216-1.245-22.727.573-2.057.498-4.127.887-6.202 1.19 14.535 2.101 24.272-.885 28.929-1.763z" fill="#e8ab4c"/></g><g><path d="m144.511 484.504c-11.103-5.222-23.495-7.139-35.974-6.344-31.094 1.98-56.172-22.975-54.185-54.185.794-12.478-1.123-24.87-6.344-35.974-42.322-89.991-18.819-209.58 65.749-294.148 54.314-54.314 123.073-83.43 189.159-86.108-71.995-2.972-149.338 26.288-209.159 86.108-84.568 84.568-108.071 204.157-65.749 294.149 5.222 11.103 7.139 23.495 6.344 35.974-1.979 31.094 22.976 56.172 54.185 54.185 12.478-.794 24.87 1.123 35.974 6.344 32.224 15.155 68.244 21.866 105.091 20.359-29.821-1.22-58.727-7.961-85.091-20.36z" fill="#e8ab4c"/></g></g></g><g><path d="m127.705 477.723c-11.699-5.513-25.405-7.95-39.646-7.05-26.61 1.704-47.913-19.595-46.227-46.216.91-14.203-1.522-27.914-7.037-39.651-20.026-42.584-25.056-93.842-14.165-144.333 22.286-103.309 105.865-188.685 205.048-216.127l-4-14.457c-49.345 13.653-95.412 40.854-133.223 78.665-89.596 89.585-109.346 213.088-67.235 302.633 4.44 9.452 6.393 20.625 5.643 32.316-2.249 35.509 26.401 64.441 62.149 62.14 11.881-.751 22.748 1.149 32.305 5.652 69.916 32.876 153.186 26.077 223.465-9.579l-6.787-13.377c-65.982 33.476-144.454 40.342-210.29 9.384z"/><path d="m495.152 130.324c-5.101-12.249-6.221-25.98-3.154-38.663 10.6-43.798-27.619-81.689-71.157-71.153-12.667 3.074-26.398 1.957-38.662-3.146-43.47-18.075-92.903-22.131-142.957-11.728l3.053 14.687c47.087-9.788 93.473-6.021 134.143 10.891 15.183 6.317 32.213 7.694 47.956 3.875 32.706-7.916 60.981 20.254 53.045 53.048-3.81 15.757-2.43 32.789 3.884 47.952 47.016 113.086-11.552 256.858-129.896 324.991l7.484 13c69.968-40.282 126.812-110.403 146.426-193.752 12.342-52.45 8.827-104.318-10.165-150.002z"/></g><g><path d="m409.534 135.228h15v15h-15z" fill="#fff"/></g><g><path d="m440.534 175.228h15v15h-15z"/></g><g><path d="m379.534 175.228h15v15h-15z" fill="#fff"/></g><g><path d="m409.534 217.228h15v15h-15z"/></g><g><path d="m409.534 307.228h15v15h-15z"/></g><g><path d="m440.534 266.228h15v15h-15z" fill="#fff"/></g><g><path d="m379.534 266.228h15v15h-15z" fill="#fff"/></g></g></svg>