<svg id="Layer_1" enable-background="new 0 0 512.119 512.119" height="512" viewBox="0 0 512.119 512.119" width="512" xmlns="http://www.w3.org/2000/svg"><g><path d="m239.234 201.291c-32.964 54.768-45.931 81.35-59.884 149.094h-44.846v154.232h237.964v-154.232h-29.377c13.346-39.464 35.687-75.426 65.748-105.486l23.18-23.182v-214.214h-351.919v193.773z" fill="#faed8a"/><path d="m111.003 38.406v131.966h96.48v-35.485h97.151v34.79c-53.944 59.619-88.14 132.829-99.298 211.611h-39.929v92.424h176.156v-92.424h-38.436c11.24-59.595 40.038-114.422 83.858-158.241l14.129-14.131v-170.51z" fill="#ea5172"/><g><g><g><path d="m179.35 350.385h20c13.953-67.744 26.92-94.325 59.884-149.094l-159.134-.015v-193.773h-20v193.773l159.134.015c-32.964 54.769-45.931 81.35-59.884 149.094z" fill="#e8ab4c"/></g><g><path d="m134.504 350.385h20v154.231h-20z" fill="#e8ab4c"/></g></g></g><g fill="#b3387f"><path d="m324.635 169.677v-34.791h-20v34.791c-53.944 59.619-88.14 132.829-99.298 211.611h20c11.158-78.781 45.355-151.992 99.298-211.611z"/><path d="m111.003 38.406h20v131.966h-20z"/><path d="m165.408 381.289h20v92.424h-20z"/></g><g><path d="m72.6 0v208.779l153.413.01c-26.992 45.593-39.816 73.335-52.756 134.101h-46.257v107.17h15v-92.17h43.463c15.893-77.212 26.955-97.508 67.033-164.099l-164.896-.011v-178.78h336.92v203.613l-20.983 20.982c-30.974 30.975-53.701 67.442-67.551 108.391l-3.35 9.903h32.334v139.229h-222.97v-32.06h-15v47.06h252.97v-169.228h-26.208c13.296-34.741 33.575-65.881 60.382-92.687l25.376-25.377v-224.826z"/><path d="m198.88 373.79h-40.971v107.42h191.15v-107.42h-36.742c12.127-54.995 39.656-105.118 79.976-145.437l16.326-16.327v-127.127h-15v120.914l-11.934 11.933c-44.622 44.624-74.335 100.696-85.925 162.154l-1.677 8.89h39.977v77.42h-161.15v-77.42h38.943l.913-6.448c10.982-77.528 44.676-149.325 97.436-207.63l1.938-2.143v-45.18h-112.16v35.479h-81.48v-116.959h275.119v23.99h15v-38.99h-305.119v146.96h111.479v-35.479h82.16v24.415c-52.213 58.517-86.085 129.896-98.259 206.985z"/></g><g><path d="m306.568 435.946h-15v-15h15zm-45 0h-15v-15h15zm-45 0h-15v-15h15z" fill="#fff"/></g></g></svg>