<svg id="Layer_1" enable-background="new 0 0 512 512" height="512" viewBox="0 0 512 512" width="512" xmlns="http://www.w3.org/2000/svg"><g><path d="m471.773 256c16.835-12.522 27.743-32.566 27.743-55.16 0-37.945-30.761-68.706-68.706-68.706-32.002 0-81.721 39.777-118.798 74.247-2.406 2.236-6.121 2.167-8.496-.103-2.635-2.52-2.473-6.401-.293-8.725 34.997-37.32 76.642-88.606 76.642-121.349 0-37.945-30.761-68.706-68.706-68.706-22.594 0-42.637 10.908-55.16 27.743-12.521-16.833-32.565-27.741-55.158-27.741-37.945 0-68.706 30.761-68.706 68.706 0 32.744 41.642 84.035 76.635 121.356 2.172 2.316 2.351 6.196-.292 8.724-2.374 2.27-6.091 2.34-8.496.103-37.077-34.475-86.791-74.254-118.791-74.254-37.945 0-68.706 30.761-68.706 68.706 0 22.594 10.908 42.637 27.743 55.16-16.835 12.522-27.743 32.566-27.743 55.16 0 37.945 30.761 68.706 68.706 68.706 32.002 0 81.719-39.776 118.797-74.246 2.406-2.237 6.123-2.168 8.498.103 2.649 2.533 2.501 6.368.292 8.724-34.997 37.32-76.642 88.607-76.642 121.349 0 37.945 30.761 68.706 68.706 68.706 22.594 0 42.637-10.908 55.16-27.743 12.522 16.835 32.566 27.743 55.159 27.743 37.945 0 68.706-30.761 68.706-68.706 0-32.744-41.642-84.035-76.635-121.356-2.2-2.347-2.366-6.182.291-8.723 2.375-2.271 6.093-2.34 8.499-.103 37.077 34.474 86.79 74.252 118.79 74.252 37.945 0 68.706-30.761 68.706-68.706-.002-22.595-10.91-42.639-27.745-55.161z" fill="#bfedb3"/><g fill="#0ea8b2"><path d="m219.981 206.388c2.288 2.127 5.969 2.31 8.585-.188 2.411-2.297 2.481-6.21.204-8.639-34.993-37.321-76.635-88.611-76.635-121.356 0-34.554 25.512-63.141 58.726-67.975-41.694-6.096-78.726 26.227-78.726 67.975 0 30.575 36.307 77.319 69.607 113.763 6.312 5.488 12.43 11.019 18.239 16.42z"/><path d="m276 35.243c10.636-14.298 26.698-24.317 45.14-27.013-20.009-2.912-40.001 2.99-55.14 16.209 3.703 3.234 7.061 6.853 10 10.804z"/><path d="m323.224 197.554c-2.167 2.311-2.357 6.19.293 8.725 2.374 2.27 6.09 2.339 8.496.103 33.799-31.422 78.099-67.248 109.912-73.34-3.619-.589-7.328-.908-11.114-.908-26.991 0-66.583 28.295-100.566 57.836-2.36 2.583-4.706 5.115-7.021 7.584z"/><path d="m152.135 435.794c0-32.742 41.644-84.029 76.642-121.349 2.301-2.453 2.231-6.32-.204-8.64-2.64-2.513-6.314-2.298-8.586-.186-5.806 5.398-11.922 10.925-18.231 16.41-33.306 36.444-69.621 83.189-69.621 113.765 0 41.811 37.085 74.063 78.726 67.975-33.214-4.834-58.726-33.42-58.726-67.975z"/><path d="m332.021 305.613c-2.288-2.127-5.957-2.311-8.586.186-2.434 2.32-2.504 6.186-.204 8.639 2.318 2.472 4.666 5.008 7.029 7.593 33.979 29.542 73.564 57.834 100.551 57.834 3.785 0 7.495-.319 11.114-.908-31.81-6.091-76.106-41.918-109.904-73.344z"/><path d="m276 476.757c-2.939 3.951-6.297 7.57-10 10.804 15.108 13.193 35.091 19.127 55.139 16.209-18.441-2.696-34.503-12.715-45.139-27.013z"/><path d="m32.484 311.159c0-22.594 10.908-42.637 27.743-55.159-16.835-12.522-27.743-32.566-27.743-55.16 0-34.16 24.934-62.484 57.592-67.798-3.086-.591-6.056-.908-8.886-.908-37.945 0-68.706 30.76-68.706 68.706 0 22.594 10.908 42.637 27.743 55.16-16.835 12.522-27.743 32.566-27.743 55.159 0 37.945 30.761 68.706 68.706 68.706 2.83 0 5.801-.317 8.886-.908-32.658-5.313-57.592-33.638-57.592-67.798z"/></g><g><path d="m248.5 143.356v105.144h-105.144v15h105.144v105.144h15v-105.144h105.144v-15h-105.144v-105.144z"/><path d="m262.018 472.283-6.018-8.089-6.018 8.089c-11.685 15.708-29.596 24.717-49.142 24.717-33.751 0-61.21-27.459-61.21-61.21 0-23.63 26.5-64.9 74.628-116.218 4.816-5.15 5.206-13.569-.591-19.27-5.251-5.028-13.506-5.102-18.783-.176-50.115 46.587-90.492 72.243-113.694 72.243-33.751 0-61.21-27.459-61.21-61.21 0-19.548 9.012-37.46 24.725-49.142l8.096-6.017-8.096-6.019c-15.713-11.681-24.725-29.593-24.725-49.141 0-33.751 27.458-61.21 61.21-61.21 23.203 0 63.576 25.659 113.684 72.253 5.284 4.912 13.534 4.839 18.782-.165 5.807-5.722 5.412-14.142.585-19.288-48.114-51.316-74.611-92.591-74.611-116.22 0-12.602 3.793-24.696 10.97-34.977l-12.3-8.586c-8.943 12.811-13.67 27.874-13.67 43.563 0 24.989 20.708 61.169 61.622 107.726-45.288-39.376-80.571-59.306-105.062-59.306-42.022 0-76.21 34.188-76.21 76.21 0 20.856 8.703 40.874 23.646 55.16-14.943 14.286-23.646 34.304-23.646 55.16 0 42.022 34.188 76.21 76.21 76.21 24.488 0 59.772-19.927 105.07-59.299-40.918 46.55-61.63 82.728-61.63 107.719 0 42.022 34.188 76.21 76.21 76.21 20.854 0 40.871-8.7 55.16-23.641 27.589 28.848 72.689 31.65 103.49 6.356l-9.52-11.592c-26.1 21.433-66.356 18.192-87.952-10.84z"/><path d="m507.02 200.84c0-42.022-34.188-76.21-76.21-76.21-24.488 0-59.772 19.927-105.07 59.299 40.918-46.55 61.63-82.728 61.63-107.719 0-42.022-34.187-76.21-76.21-76.21-20.854 0-40.871 8.7-55.16 23.64-28.583-29.884-75.991-31.828-106.73-3.527l10.16 11.035c26.075-24.007 68.314-21.325 90.552 8.569l6.018 8.089 6.018-8.089c11.685-15.708 29.597-24.717 49.142-24.717 33.751 0 61.21 27.459 61.21 61.21 0 23.63-26.501 64.9-74.631 116.221-5.077 5.436-4.868 13.99.446 19.121 5.311 5.224 13.656 5.247 18.931.321 50.115-46.587 90.492-72.243 113.694-72.243 33.751 0 61.21 27.459 61.21 61.21 0 19.548-9.012 37.46-24.725 49.142l-8.096 6.018 8.096 6.019c15.713 11.682 24.725 29.594 24.725 49.142 0 33.751-27.458 61.21-61.21 61.21-23.203 0-63.576-25.659-113.696-72.265-5.353-4.953-13.703-4.806-18.93.334-5.317 5.146-5.514 13.71-.425 19.131 48.114 51.316 74.611 92.591 74.611 116.22 0 13.846-4.512 26.905-13.047 37.767l11.794 9.268c10.633-13.529 16.253-29.794 16.253-47.034 0-24.989-20.708-61.168-61.623-107.727 45.288 39.376 80.572 59.307 105.063 59.307 42.022 0 76.21-34.188 76.21-76.21 0-20.856-8.703-40.874-23.646-55.16 14.943-14.288 23.646-34.306 23.646-55.162z"/></g><g><g><path d="m248.508 91.484h15v15h-15z" fill="#fff"/></g><g><path d="m248.508 405.516h15v15h-15z" fill="#fff"/></g></g><g><g><path d="m405.516 248.509h15v15h-15z" fill="#fff"/></g><g><path d="m91.484 248.509h15v15h-15z" fill="#fff"/></g></g></g></svg>