<svg id="Layer_1" enable-background="new 0 0 506.223 506.223" height="512" viewBox="0 0 506.223 506.223" width="512" xmlns="http://www.w3.org/2000/svg"><g><path d="m10.66 416.657c112.288 110.026 292.497 109.346 403.921-2.079s112.104-291.633 2.079-403.921z" fill="#bfedb3"/><path d="m54.37 372.947c88.013 85.747 229.357 85.065 316.501-2.079s87.826-228.489 2.079-316.501z" fill="#fff"/><path d="m79.726 347.592c74.029 71.768 192.628 71.084 265.79-2.079s73.847-191.761 2.079-265.79z" fill="#ea5172"/><path d="m30.66 416.657 395.652-395.651c-3.118-3.508-6.332-6.961-9.651-10.349l-406 406c58.367 57.191 135.085 84.455 210.955 81.817-69.207-2.388-137.716-29.65-190.956-81.817z" fill="#0ea8b2"/><path d="m74.37 372.947 308.126-308.125c-3.058-3.557-6.229-7.05-9.546-10.454l-318.58 318.579c46.196 45.007 107.084 66.188 167.117 63.567-53.368-2.37-106.049-23.555-147.117-63.567z" fill="#e3edf6"/><path d="m99.726 347.592 257.341-257.341c-3.004-3.598-6.16-7.111-9.472-10.528l-267.869 267.869c39.255 38.057 91.043 55.737 141.943 53.045-44.241-2.296-87.826-19.969-121.943-53.045z" fill="#b3387f"/><g><path d="m422.02 5.412-5.302-5.412-293.427 293.428 10.606 10.607 213.495-213.495c63.327 70.955 61.685 180.801-7.182 249.667-69.145 69.147-179.018 70.235-249.668 7.182l32.745-32.745-10.606-10.607-112.678 112.678 5.412 5.303c115.462 113.139 300.219 112.109 414.473-2.134 114.177-114.188 115.319-298.96 2.132-414.472zm-12.739 403.865c-106.701 106.691-278.095 109.276-387.885 7.259l33.139-33.139c43.396 39.71 99.401 61.204 158.457 60.844 120.987-.73 217.098-92.321 229.806-206.712l-14.908-1.656c-12.166 109.515-104.393 193.372-216.341 193.372-54.628 0-106.283-19.966-146.406-56.456l14.779-14.779c37.918 34.137 85.504 50.772 133.082 50.39 107.791-.776 194.622-87.564 195.398-195.398.357-49.576-17.491-96.54-50.39-133.081l14.781-14.781c37.79 41.533 58.872 97.163 56.229 156.227l14.984.67c2.69-60.083-17.673-120.607-60.604-167.506l33.138-33.138c100.96 108.654 100.474 280.141-7.259 387.884z"/></g><g><g><path d="m216.227 262.927h15v15h-15z" transform="matrix(.707 -.707 .707 .707 -125.691 237.389)"/></g><g><path d="m270.32 208.834h15v15h-15z" transform="matrix(.707 -.707 .707 .707 -71.596 259.844)"/></g><g><path d="m211.764 312.558h15v15h-15z" fill="#fff" transform="matrix(.707 -.707 .707 .707 -162.091 248.768)"/></g><g><path d="m265.857 258.464h15v15h-15z" fill="#fff" transform="matrix(.707 -.707 .707 .707 -108.001 271.157)"/></g><g><path d="m319.952 204.37h15v15.001h-15z" fill="#fff" transform="matrix(.707 -.707 .707 .707 -53.907 293.599)"/></g></g></g></svg>