<svg id="Layer_1" enable-background="new 0 0 512 512" height="512" viewBox="0 0 512 512" width="512" xmlns="http://www.w3.org/2000/svg"><g><path d="m247.75 36.799-74.58 124.63-74.58-124.63z" fill="#fff"/><path d="m413.41 36.799-74.58 124.63-74.58-124.63z" fill="#fff"/><path d="m256.606 475.813 82.224-296.104h-165.66l82.224 296.104z" fill="#fff"/><g fill="#e3edf6"><path d="m429.92 36.799h-16.51l-74.58 124.63-74.58-124.63h-16.5l-74.58 124.63-74.58-124.63h-16.51l-74.58 124.63v28.28l243.404 286.104h4.49l-82.224-296.104h165.66l-82.224 296.104h4.49l243.404-286.104v-28.28z"/><path d="m504.5 161.429v18.28h-165.67v-18.28l74.58-124.63h16.51z"/><path d="m338.83 161.429v18.28h-165.66v-18.28l74.58-124.63h16.5z"/><path d="m173.17 161.429v18.28h-165.67v-18.28l74.58-124.63h16.51z"/><path d="m338.83 179.709-82.224 296.104h4.49l243.404-286.104v-10z"/><path d="m255.394 475.813-82.224-296.104h-165.67v10l243.404 286.104z"/></g><path d="m429.92 36.799h-16.51l-74.58 124.63-74.58-124.63h-16.5l-74.58 124.63-74.58-124.63h-16.51l-74.58 124.63v28.28l243.404 286.104h4.49l-82.224-296.104h165.66l-82.224 296.104h4.49l243.404-286.104v-28.28z" fill="#c6fff6"/><g><path d="m82.902 121.996h15v15h-15z"/></g><g><path d="m414.232 121.996h15v15h-15z"/></g><g><path d="m248.567 241.139h15v15h-15z"/></g><g><path d="m248.567 121.996h15v15h-15z"/></g><path d="m118.59 36.799h-20l74.58 124.63 10-16.711z" fill="#d4fff8"/><path d="m284.25 36.799h-20l74.58 124.63 10-16.711z" fill="#d4fff8"/><path d="m193.17 179.709h-20l82.224 296.104h1.212l9.394-33.831z" fill="#d4fff8"/><path d="m431.665 39.715-1.745-2.916h-16.51l-74.58 124.63v18.28h20v-18.28z" fill="#a8c6e2"/><path d="m266 39.724-1.75-2.925h-16.5l-74.58 124.63v18.28h20v-18.28z" fill="#a8c6e2"/><path d="m100.335 39.715-1.745-2.916h-16.51l-74.58 124.63v18.28h20v-18.28z" fill="#a8c6e2"/><path d="m358.83 179.709h-20l-82.224 296.104h4.49l23.025-27.064z" fill="#a8c6e2"/><path d="m27.5 189.709v-10h-20v10l243.404 286.104h4.49l-7.515-27.064z" fill="#a8c6e2"/><path d="m434.172 29.296h-87.842v15h53.852l-61.352 102.524-61.351-102.524h53.852v-15h-253.503c-77.674 129.8-77.828 129.96-77.828 130.061v33.107l125.337 147.341 11.426-9.719-121.54-142.877h152.246l73.771 265.676-94.717-111.339-11.425 9.72 111.811 131.433 18.178.005 246.913-290.236v-33.111c0-.101-2.361-3.95-77.828-130.061zm-182.17 15.003h7.996l71.332 119.203v8.704h-150.66v-8.704zm-68.965 142.91h145.926l-72.963 262.753zm87.726 265.666 73.768-265.666h152.246zm-36.243-408.576-61.35 102.521-61.35-102.521zm-219.52 119.203 71.333-119.203h8.005l71.333 119.203v8.704h-150.671zm331.33 8.704v-8.704l71.332-119.203h8.006l71.332 119.203v8.707z"/></g></svg>