<svg id="Layer_1" enable-background="new 0 0 512.078 512.078" height="512" viewBox="0 0 512.078 512.078" width="512" xmlns="http://www.w3.org/2000/svg"><g><path d="m358.599 50.399-30.127 30.126c-12.708-7.954-26.81-13.886-41.852-17.353v-42.61c26.428 4.616 50.869 15.005 71.979 29.837z" fill="#bfedb3"/><path d="m306.621 63.172v-37.91c-6.521-1.932-13.193-3.511-20-4.7v42.611c15.042 3.468 29.144 9.399 41.852 17.353l7.123-7.123c-9.141-4.437-18.844-7.895-28.975-10.231z" fill="#0ea8b2"/><path d="m286.621 20.562v42.611c-19.842-4.58-41.351-4.803-62.16 0v-42.611c19.974-3.489 41.209-3.66 62.16 0z" fill="#faed8a"/><g><g><g><path d="m265.54 60.024c7.194.515 14.238 1.569 21.08 3.148v-3.071c-7.291-.579-13.972-.586-21.08-.077z" fill="#e8ab4c"/></g><g><path d="m244.46 20.562c6.897-1.205 13.934-2.004 21.08-2.396-13.961-.766-27.632.048-41.08 2.396v42.611c6.5-1.5 13.18-2.529 20-3.071z" fill="#e8ab4c"/></g></g></g><path d="m224.46 20.562v42.611c-15.042 3.468-29.144 9.399-41.852 17.353l-30.126-30.126c21.11-14.833 45.551-25.222 71.978-29.838z" fill="#bfedb3"/><path d="m172.482 50.399c15.673-11.012 33.184-19.567 51.979-25.137v-4.7c-26.427 4.617-50.868 15.005-71.979 29.837l30.127 30.126c4.148-2.596 8.448-4.973 12.877-7.123z" fill="#0ea8b2"/><path d="m70.374 312.875h371.002v139.287h-371.002z" fill="#ea5172"/><path d="m432.391 166.332h-42.611c-3.468-15.042-9.399-29.144-17.353-41.852l30.126-30.126c14.832 21.11 25.221 45.55 29.838 71.978z" fill="#bfedb3"/><path d="m180.396 312.875h150.29c37.691-24.58 62.61-67.109 62.61-115.463 0-76.08-61.675-137.755-137.755-137.755s-137.755 61.675-137.755 137.755c-.001 48.354 24.918 90.883 62.61 115.463z" fill="#bfedb3"/><circle cx="255.54" cy="197.412" fill="#faed8a" r="81.335"/><path d="m182.608 80.526c-17.78 11.111-32.843 26.175-43.954 43.954l-30.127-30.126c11.986-17.079 26.875-31.969 43.954-43.954z" fill="#faed8a"/><path d="m138.654 124.48c-7.954 12.708-13.886 26.81-17.353 41.852h-42.611c4.616-26.428 15.005-50.868 29.838-71.978z" fill="#bfedb3"/><path d="m121.301 228.492h-42.611c-3.489-19.975-3.659-41.211 0-62.16h42.611c-4.58 19.842-4.804 41.35 0 62.16z" fill="#faed8a"/><path d="m138.654 270.344-30.127 30.126c-14.832-21.11-25.221-45.551-29.838-71.978h42.611c3.468 15.042 9.4 29.144 17.354 41.852z" fill="#bfedb3"/><path d="m180.401 312.875c-16.817-10.961-31.1-25.494-41.747-42.531l-30.126 30.126c3.001 4.276 6.184 8.414 9.537 12.405z" fill="#faed8a"/><path d="m393.016 312.875c3.354-3.99 6.536-8.129 9.537-12.405l-30.126-30.126c-10.647 17.037-24.93 31.57-41.748 42.531z" fill="#faed8a"/><path d="m432.391 228.492c-4.617 26.428-15.005 50.868-29.838 71.978l-30.126-30.126c7.954-12.708 13.886-26.81 17.353-41.852z" fill="#bfedb3"/><path d="m432.391 228.492h-42.611c4.58-19.843 4.803-41.351 0-62.16h42.611c3.489 19.974 3.659 41.209 0 62.16z" fill="#faed8a"/><path d="m402.553 94.354-30.126 30.126c-11.111-17.78-26.175-32.843-43.954-43.954l30.127-30.126c17.078 11.985 31.968 26.875 43.953 43.954z" fill="#faed8a"/><path d="m485.261 440.851 16.625-53.332h-59.842v64.643h-97.505v42.021h157.347z" fill="#ea5172"/><path d="m26.822 440.851-16.625-53.332h59.843v64.643h97.505v42.021h-157.348z" fill="#ea5172"/><path d="m70.374 312.875h20v139.287h-20z" fill="#b3387f"/><path d="m410.388 106.519c-2.451-4.166-5.065-8.224-7.835-12.166l-30.126 30.126c7.954 12.708 13.886 26.81 17.353 41.852h20c-3.468-15.042-9.399-29.144-17.353-41.852z" fill="#0ea8b2"/><path d="m137.785 197.412c0-72.717 56.344-132.268 127.755-137.392-80.385-5.769-147.755 57.868-147.755 137.392 0 48.354 24.919 90.883 62.61 115.463h20c-37.691-24.58-62.61-67.109-62.61-115.463z" fill="#0ea8b2"/><path d="m194.206 197.412c0-41.532 31.136-75.769 71.335-80.701-49.008-6.013-91.335 32.232-91.335 80.701 0 48.39 42.247 86.726 91.335 80.7-40.199-4.931-71.335-39.168-71.335-80.7z" fill="#e8ab4c"/><path d="m128.528 94.354c9.25-13.18 20.235-25.05 32.615-35.293l-8.661-8.661c-17.079 11.986-31.969 26.875-43.954 43.955l30.126 30.126c2.543-4.069 5.302-7.987 8.244-11.756z" fill="#e8ab4c"/><path d="m108.528 94.354c-14.832 21.11-25.221 45.551-29.838 71.978h20c3.754-21.493 11.328-41.671 22.003-59.813z" fill="#0ea8b2"/><path d="m98.69 166.332h-20c-3.489 19.975-3.659 41.21 0 62.16h20c-3.489-19.974-3.659-41.21 0-62.16z" fill="#e8ab4c"/><path d="m98.69 228.492h-20c4.616 26.427 15.005 50.868 29.838 71.978l12.165-12.165c-10.675-18.142-18.249-38.32-22.003-59.813z" fill="#0ea8b2"/><path d="m146.895 282.103c-2.943-3.769-5.699-7.69-8.241-11.759l-30.126 30.126c3.001 4.276 6.184 8.414 9.537 12.405h20c-3.354-3.99-6.536-8.129-9.537-12.405z" fill="#e8ab4c"/><path d="m384.186 282.103-11.759-11.759c-10.647 17.037-24.93 31.569-41.748 42.531h20c12.801-8.343 24.128-18.761 33.507-30.772z" fill="#e8ab4c"/><path d="m392.427 270.344c7.954-12.708 13.886-26.81 17.353-41.852h-20c-3.468 15.042-9.399 29.144-17.353 41.852l30.126 30.126c2.77-3.942 5.383-8 7.835-12.165z" fill="#0ea8b2"/><path d="m409.78 166.332h-20c4.579 19.84 4.804 41.349 0 62.16h20c4.58-19.84 4.804-41.349 0-62.16z" fill="#e8ab4c"/><path d="m348.473 80.525 21.466-21.466c-3.662-3.03-7.44-5.925-11.339-8.661l-30.127 30.126c17.78 11.111 32.843 26.175 43.954 43.955l11.756-11.756c-9.913-12.702-21.999-23.629-35.71-32.198z" fill="#e8ab4c"/><g fill="#b3387f"><path d="m442.044 387.519h20v64.643h-20z"/><path d="m344.539 452.162h20v42.021h-20z"/></g><path d="m30.197 387.519h-20l16.625 53.332-16.625 53.332h20l16.625-53.332z" fill="#b3387f"/><g><path d="m357.383 189.831h15v15h-15z" fill="#fff"/></g><g><path d="m139.383 189.831h15v15h-15z" fill="#fff"/></g><g><path d="m448.875 359.423h-15v85.241h-356v-124.29h356v24.049h15v-39.049h-386v154.29h386z"/><path d="m244.647 343.439h15v81.524h-15z"/><path d="m328.722 372.649v-28.228h-52.345v32.574h15v-17.574h22.345v6.83l-37.345 35.809v21.826h52.345v-28.567h-15v13.567h-22.345v-.427z"/><path d="m125.335 424.963v-29.449l37.345.364v-51.457h-52.345v80.542zm0-65.542h22.345v21.311l-22.345-.218z"/><path d="m229.403 344.469h-52.344v80.541h15v-28.262h10.631l11.641 17.825v10.39h15v-14.854l-9.323-14.274 9.394.092v-51.458zm-37.344 15h22.344v21.311l-22.344-.219z"/><path d="m393.245 359.421v-15h-48.237v79.465h48.237v-15h-33.237v-14.592h33.237v-15h-33.237v-19.873z"/><path d="m195.946 240.993-12.103 8.861c16.683 22.785 43.487 36.389 71.701 36.389 48.981 0 88.83-39.849 88.83-88.829 0-48.987-39.849-88.841-88.83-88.841-48.986 0-88.84 39.854-88.84 88.841 0 13.445 2.93 26.363 8.709 38.396l13.521-6.494c-4.798-9.989-7.23-20.724-7.23-31.902 0-40.716 33.125-73.841 73.84-73.841 40.71 0 73.83 33.125 73.83 73.841 0 40.71-33.12 73.829-73.83 73.829-23.449 0-45.729-11.309-59.598-30.25z"/><path d="m91.033 286.452 13.184-7.156c-7.413-13.656-12.902-28.187-16.368-43.303h27.614c3.708 13.522 9.358 26.391 16.836 38.331l12.713-7.961c-27-43.114-25.604-97.637.007-137.915 17.796-28.473 46.511-49.904 81.164-57.976 34.748-8.01 70.875-1.101 98.322 16.418 61.594 38.497 79.301 119.214 41.564 179.472l12.713 7.961c7.474-11.934 13.127-24.804 16.843-38.331h27.607c-3.466 15.116-8.956 29.646-16.368 43.303l13.184 7.156-.009-.005c14.36-26.474 22.516-56.804 22.516-89.039 0-103.285-83.729-187.013-187.013-187.013s-187.015 83.729-187.015 187.014c0 32.276 8.177 62.643 22.572 89.142zm21.154-65.46h-27.075c-2.059-15.05-2.211-30.995 0-47.16h27.075c-2.458 15.072-2.62 31.097 0 47.16zm313.782 0h-27.075c2.458-15.073 2.619-31.098 0-47.16h27.075c2.059 15.05 2.212 30.995 0 47.16zm-2.735-62.16h-27.613c-3.185-11.6-7.795-22.718-13.758-33.18l19.52-19.52c10.25 16.301 17.574 33.962 21.851 52.7zm-63.868-98.593c12.616 9.551 23.795 20.73 33.348 33.347l-19.146 19.146c-9.214-12.805-20.542-24.134-33.348-33.348 6.675-6.674 12.37-12.369 19.146-19.145zm-12.544-8.669-19.521 19.52c-10.461-5.963-21.58-10.573-33.181-13.759v-27.613c18.738 4.279 36.4 11.602 52.702 21.852zm-67.701-24.587v27.075c-15.191-2.478-31.225-2.599-47.16 0v-27.075c15.551-2.127 31.608-2.127 47.16 0zm-62.161 2.735v27.613c-11.601 3.186-22.719 7.796-33.181 13.759l-19.52-19.52c16.302-10.25 33.964-17.573 52.701-21.852zm-65.246 30.52 19.146 19.146c-12.806 9.215-24.133 20.541-33.348 33.347l-19.145-19.146c9.552-12.617 20.732-23.796 33.347-33.347zm-42.016 45.893 19.521 19.521c-5.963 10.463-10.573 21.581-13.758 33.18h-27.614c4.278-18.738 11.601-36.4 21.851-52.701z"/><path d="m224.12 223.117c0 15.289 10.382 27.459 23.921 30.788v5.758h15v-5.758c13.715-3.372 23.921-15.769 23.921-30.509v-3.862c0-13.954-10.442-25.507-23.921-27.277v-31.215c5.25 2.71 8.921 8.103 8.921 14.868h15c0-15.289-10.382-27.458-23.921-30.787v-5.759h-15v5.759c-13.715 3.372-23.921 15.768-23.921 30.509v3.862c0 13.954 10.442 25.507 23.921 27.277v31.216c-5.25-2.71-8.921-8.103-8.921-14.869h-15zm47.841-3.584v3.862c0 6.352-3.631 11.861-8.921 14.591v-30.44c5.154 1.551 8.921 6.334 8.921 11.987zm-32.841-40.039v-3.862c0-6.351 3.631-11.86 8.921-14.59v30.439c-5.154-1.551-8.921-6.335-8.921-11.987z"/><path d="m512.078 380.023h-40.703v15h20.317l-14.283 45.83 14.283 45.83h-139.657v-4.519h-15v19.519h175.043l-18.957-60.83z"/><path d="m160.045 486.683h-139.655l14.291-45.83-14.291-45.83h19.985v-15h-40.375l18.969 60.83-18.969 60.83h175.045v-19.519h-15z"/></g></g></svg>