<svg id="Layer_1" enable-background="new 0 0 512 512" height="512" viewBox="0 0 512 512" width="512" xmlns="http://www.w3.org/2000/svg"><g><path d="m504.5 138.908-250.5-74.456-246.5 74.456v234.184l246.5 74.456 250.5-74.456z" fill="#ea5172"/><g fill="#faed8a"><circle cx="121.111" cy="158.874" r="16.275"/><circle cx="211.037" cy="158.874" r="16.275"/><circle cx="300.963" cy="158.874" r="16.275"/><circle cx="390.889" cy="158.874" r="16.275"/><circle cx="121.111" cy="353.126" r="16.275"/><circle cx="211.037" cy="353.126" r="16.275"/><circle cx="300.963" cy="353.126" r="16.275"/><circle cx="390.889" cy="353.126" r="16.275"/></g><path d="m27.5 373.092v-234.184l236.581-71.46-10.081-2.996-246.5 74.456v234.184l246.5 74.456 10.081-2.996z" fill="#b3387f"/><path d="m131.111 146.052c-2.761-2.156-6.226-3.453-10-3.453-8.989 0-16.275 7.287-16.275 16.275 0 8.989 7.287 16.275 16.275 16.275 3.774 0 7.239-1.297 10-3.453-8.373-6.539-8.361-19.115 0-25.644z" fill="#e8ab4c"/><path d="m221.037 146.052c-2.761-2.156-6.226-3.453-10-3.453-8.989 0-16.275 7.287-16.275 16.275 0 8.989 7.287 16.275 16.275 16.275 3.774 0 7.239-1.297 10-3.453-8.374-6.539-8.361-19.115 0-25.644z" fill="#e8ab4c"/><path d="m310.963 146.052c-2.761-2.156-6.226-3.453-10-3.453-8.989 0-16.275 7.287-16.275 16.275 0 8.989 7.287 16.275 16.275 16.275 3.774 0 7.239-1.297 10-3.453-8.373-6.539-8.361-19.115 0-25.644z" fill="#e8ab4c"/><path d="m400.889 146.052c-2.761-2.156-6.226-3.453-10-3.453-8.989 0-16.275 7.287-16.275 16.275 0 8.989 7.287 16.275 16.275 16.275 3.774 0 7.239-1.297 10-3.453-8.374-6.539-8.361-19.115 0-25.644z" fill="#e8ab4c"/><path d="m131.111 340.303c-2.761-2.156-6.226-3.453-10-3.453-8.989 0-16.275 7.287-16.275 16.275 0 8.989 7.287 16.275 16.275 16.275 3.774 0 7.239-1.297 10-3.453-8.373-6.538-8.361-19.114 0-25.644z" fill="#e8ab4c"/><path d="m221.037 340.303c-2.761-2.156-6.226-3.453-10-3.453-8.989 0-16.275 7.287-16.275 16.275 0 8.989 7.287 16.275 16.275 16.275 3.774 0 7.239-1.297 10-3.453-8.374-6.538-8.361-19.114 0-25.644z" fill="#e8ab4c"/><path d="m310.963 340.303c-2.761-2.156-6.226-3.453-10-3.453-8.989 0-16.275 7.287-16.275 16.275 0 8.989 7.287 16.275 16.275 16.275 3.774 0 7.239-1.297 10-3.453-8.373-6.538-8.361-19.114 0-25.644z" fill="#e8ab4c"/><path d="m400.889 340.303c-2.761-2.156-6.226-3.453-10-3.453-8.989 0-16.275 7.287-16.275 16.275 0 8.989 7.287 16.275 16.275 16.275 3.774 0 7.239-1.297 10-3.453-8.374-6.538-8.361-19.114 0-25.644z" fill="#e8ab4c"/><g><path d="m144.886 158.874c0-13.11-10.666-23.775-23.775-23.775s-23.775 10.666-23.775 23.775 10.666 23.775 23.775 23.775 23.775-10.665 23.775-23.775zm-23.775 8.775c-4.839 0-8.775-3.937-8.775-8.775s3.937-8.775 8.775-8.775 8.775 3.937 8.775 8.775-3.936 8.775-8.775 8.775z"/><path d="m234.812 158.874c0-13.11-10.665-23.775-23.775-23.775s-23.775 10.666-23.775 23.775 10.666 23.775 23.775 23.775 23.775-10.665 23.775-23.775zm-32.55 0c0-4.839 3.937-8.775 8.775-8.775s8.775 3.937 8.775 8.775-3.936 8.775-8.775 8.775-8.775-3.936-8.775-8.775z"/><path d="m324.738 158.874c0-13.11-10.666-23.775-23.775-23.775s-23.775 10.666-23.775 23.775 10.666 23.775 23.775 23.775 23.775-10.665 23.775-23.775zm-32.551 0c0-4.839 3.937-8.775 8.775-8.775s8.775 3.937 8.775 8.775-3.937 8.775-8.775 8.775-8.775-3.936-8.775-8.775z"/><path d="m390.889 135.099c-13.109 0-23.775 10.666-23.775 23.775s10.666 23.775 23.775 23.775 23.775-10.666 23.775-23.775-10.666-23.775-23.775-23.775zm0 32.55c-4.839 0-8.775-3.937-8.775-8.775s3.937-8.775 8.775-8.775 8.775 3.937 8.775 8.775-3.936 8.775-8.775 8.775z"/><path d="m121.111 329.351c-13.11 0-23.775 10.666-23.775 23.775s10.666 23.775 23.775 23.775 23.775-10.666 23.775-23.775-10.665-23.775-23.775-23.775zm0 32.55c-4.839 0-8.775-3.937-8.775-8.775s3.937-8.775 8.775-8.775 8.775 3.937 8.775 8.775-3.936 8.775-8.775 8.775z"/><path d="m211.037 376.901c13.11 0 23.775-10.666 23.775-23.775s-10.665-23.775-23.775-23.775-23.775 10.666-23.775 23.775 10.665 23.775 23.775 23.775zm0-32.55c4.839 0 8.775 3.937 8.775 8.775s-3.936 8.775-8.775 8.775-8.775-3.937-8.775-8.775 3.936-8.775 8.775-8.775z"/><path d="m300.963 376.901c13.109 0 23.775-10.666 23.775-23.775s-10.666-23.775-23.775-23.775-23.775 10.666-23.775 23.775 10.666 23.775 23.775 23.775zm0-32.55c4.839 0 8.775 3.937 8.775 8.775s-3.937 8.775-8.775 8.775-8.775-3.937-8.775-8.775 3.936-8.775 8.775-8.775z"/><path d="m390.889 376.901c13.109 0 23.775-10.666 23.775-23.775s-10.666-23.775-23.775-23.775-23.775 10.666-23.775 23.775 10.665 23.775 23.775 23.775zm0-32.55c4.839 0 8.775 3.937 8.775 8.775s-3.937 8.775-8.775 8.775-8.775-3.937-8.775-8.775 3.936-8.775 8.775-8.775z"/><path d="m15 144.479 239.017-72.199 112.426 33.419 4.274-14.378-116.734-34.7-253.983 76.72v245.318l135.661 40.981 4.338-14.36-124.999-37.759z"/><path d="m387.077 96.181-4.273 14.378 114.196 33.946v222.99l-242.983 72.225-97.728-29.52-4.337 14.36 102.031 30.819 258.017-76.694v-245.37z"/><path d="m128.781 247.88v-39.421h-55.276v95.311h55.276v-37.998h-15v22.998h-25.276v-65.311h25.276v24.421z"/><path d="m199.263 303.781v-95.322h-55.276v95.322h15v-39.049h25.276v39.049zm-40.276-54.049v-26.273h25.276v26.273z"/><path d="m269.745 235.681v-27.222h-55.276v56.273h40.276v24.038h-25.276v-10.799h-15v25.799h55.276v-54.038h-40.276v-26.273h25.276v12.222z"/><path d="m284.951 208.219h15v95.563h-15z"/><path d="m438.495 208.459h-55.276v95.31h55.276zm-15 80.311h-25.276v-65.31h25.276z"/><path d="m327.737 243.349 20.998 60.432h19.278v-95.562h-15v62.171l-21.534-61.975h-18.742v95.366h15z"/></g><g><g><path d="m464.509 248.5h15v15h-15z" fill="#fff"/></g><g><path d="m34.508 248.5h15v15h-15z" fill="#fff"/></g></g></g></svg>