<svg xmlns="http://www.w3.org/2000/svg" xmlns:xlink="http://www.w3.org/1999/xlink" width="45" height="32" viewBox="0 0 45 32">
  <defs>
    <clipPath id="clip-_1_1">
      <rect width="45" height="32"/>
    </clipPath>
  </defs>
  <g id="_1_1" data-name="1% – 1" clip-path="url(#clip-_1_1)">
    <path id="Path_2" data-name="Path 2" d="M4.588,0h7.13V-21.855H6.231L-.248-20.088l1.3,5.363L4.588-15.5Zm14.57-9.827A5.859,5.859,0,0,0,25.079-15.9v-.062a5.8,5.8,0,0,0-5.921-6.076,5.8,5.8,0,0,0-5.921,6.076v.062A5.859,5.859,0,0,0,19.158-9.827Zm0-8.277c.868,0,1.612.837,1.612,2.139v.062c0,1.333-.806,2.139-1.612,2.139S17.546-14.6,17.546-15.9v-.062C17.546-17.3,18.259-18.1,19.158-18.1Zm5.921,6.231L15.469,0l5.58-.062,7.843-9.765,9.765-11.935-5.549-.124ZM34.813.341a5.859,5.859,0,0,0,5.921-6.076V-5.8a5.8,5.8,0,0,0-5.921-6.076A5.8,5.8,0,0,0,28.892-5.8v.062A5.859,5.859,0,0,0,34.813.341Zm0-3.937c-.806,0-1.612-.837-1.612-2.139V-5.8c0-1.333.713-2.139,1.612-2.139.868,0,1.612.837,1.612,2.139v.062C36.425-4.4,35.619-3.6,34.813-3.6Z" transform="translate(2.5 26.5)" fill="rgba(255,255,255,0.85)" stroke="rgba(255,255,255,0.85)" stroke-width="0.5"/>
  </g>
</svg>
